<svg version="1.1" xmlns="http://www.w3.org/2000/svg" xmlns:xlink="http://www.w3.org/1999/xlink" x="0px"
 y="0px" width="700px" height="700px" viewBox="5 5 700 700">
  <path fill="hsl(202, 35%, 43%)" class="background" d="M0 0 L 700 0 L 700 700 L 0 700" /><!-- 背景色 -->
  <path fill="hsl(202, 35%, 98%)" class="upper" d="M150.3,262.3c0.3-52.8,0.8-81.8,1.6-87.8c2-15.1,5.9-32.9,9-40.9C171.7,105.4,194.1,85.1,225,75.2c11.1-3.5,30.3-6.9,44.2-7.9l9.8-0.6c0.149,26.8,0.149,26.8,0.128,55.383c-0.7,0.2-6.128,1.417-10.528,2.417c-4.3,1-11.8,3.7-16.7,6.2c-16.1,8-26.697,21.2-31.897,39.8c-2.4,8.3-4.3,25.5-3.8,34.5l0.3,6.5L279,212v129H149.9L150.3,262.3z" />
  <path fill="hsl(202, 35%, 98%)" class="upper" d="M333,273.6c0-75.8,1.197-98.2,6.6-124.6c6-29.1,22.9-51.6,49.6-66c15-8,38.603-13.9,62.603-15.6l10.2-0.7c0,0,0.197,46.237,0.193,55.237c-0.7,0.2-6.193,1.563-10.594,2.563c-24.3,5.4-42.6,22.7-48.7,46.1c-2.5,10.1-4.2,27.1-3.3,35.2l0.6,6.2H462v129H333V273.6z" />
  <path fill="hsl(202, 35%, 83%)" class="lower" d="M241.417,636.542c-0.3-0.7,0.083-53.942,0.083-53.942l9-2.3c14.7-3.8,24.5-9.1,33.5-18.1c13.6-13.7,18.8-27.9,19.697-54.4L304.3,492H241l0.5-128.5L370,363v67.7c0,84.5-1.103,102.8-7.9,129.6c-9.3,36.9-36.6,61.8-78.7,71.8C276.3,633.8,241.459,637.04,241.417,636.542z" />
  <path fill="hsl(202, 35%, 83%)" class="lower" d="M425,636.7c-0.303-0.3,0.1-54.5,0.1-54.5l9-2.2c14.3-3.6,23.898-8.7,33-17.9c13.5-13.5,18.7-27.8,19.6-54.3l0.468-16.633c0,0-62.169,0.033-62.169-0.367c0-0.5,0-127.8,0-127.8H553.1l-0.4,79.3C552.3,508.5,552,523.4,550.6,533c-3.2,23.2-6,33.3-12.5,46.5c-15.1,30.6-47.3,50.9-88.102,55.4C434.9,636.5,425.5,637.2,425,636.7z" />
</svg>
